<svg width="24" height="30" viewBox="0 0 24 30" fill="none" xmlns="http://www.w3.org/2000/svg">
<path d="M13.7432 0H1.7855C0.79963 0 0 0.788742 0 1.76119V28.2388C0 29.2113 0.79963 30 1.7855 30H22.2145C23.2004 30 24 29.2113 24 28.2388V10.1171C24 9.65029 23.8121 9.20199 23.4772 8.87166L15.005 0.515716C14.6701 0.185388 14.2165 0 13.7424 0H13.7432Z" fill="#3B7AD6"/>
<path d="M23.8329 9.37354C23.7381 9.17972 23.6117 9.00361 23.457 8.85193L15.037 0.545699C14.8755 0.386434 14.6884 0.255819 14.4834 0.157227V7.68988C14.4834 8.62693 15.2531 9.38618 16.2031 9.38618H23.8397L23.8329 9.3727V9.37354Z" fill="#7AACF5"/>
<path d="M2.83112 16.3857H4.59868C5.05829 16.3857 5.45298 16.4279 5.78189 16.5121C6.1108 16.5964 6.40895 16.7548 6.6772 16.9866C7.37431 17.5764 7.72287 18.4739 7.72287 19.6789C7.72287 20.0767 7.68784 20.439 7.61779 20.7676C7.54774 21.0954 7.44009 21.3921 7.29315 21.655C7.14707 21.9187 6.95997 22.1538 6.73102 22.362C6.55162 22.5212 6.35513 22.6493 6.14155 22.7462C5.92797 22.8423 5.69902 22.9106 5.45383 22.9493C5.20865 22.9889 4.93271 23.0083 4.62516 23.0083H2.8576C2.61071 23.0083 2.42532 22.9712 2.30059 22.8979C2.17586 22.8246 2.09385 22.7201 2.05626 22.5861C2.01782 22.4521 1.99902 22.2786 1.99902 22.0645V17.209C1.99902 16.92 2.06481 16.711 2.19551 16.5812C2.32622 16.4515 2.53809 16.3874 2.83026 16.3874L2.83112 16.3857ZM3.35651 17.4475V21.9415H4.38424C4.60978 21.9415 4.78577 21.9356 4.91391 21.9238C5.04206 21.912 5.17448 21.8817 5.31117 21.8336C5.44785 21.7856 5.56746 21.7173 5.66741 21.6305C6.12105 21.2513 6.34829 20.5974 6.34829 19.6705C6.34829 19.0174 6.24834 18.5278 6.04928 18.2025C5.84938 17.8773 5.60419 17.67 5.31202 17.5815C5.01985 17.493 4.66616 17.4484 4.25268 17.4484H3.35737L3.35651 17.4475Z" fill="white"/>
<path d="M11.8611 16.2725C12.5557 16.2725 13.1511 16.4115 13.6492 16.6904C14.1472 16.9694 14.524 17.3646 14.7794 17.8786C15.0357 18.3918 15.163 18.9951 15.163 19.6878C15.163 20.1993 15.0929 20.6653 14.9528 21.0833C14.8127 21.5021 14.6026 21.8644 14.3224 22.172C14.0421 22.4787 13.6979 22.7139 13.2904 22.8765C12.882 23.0391 12.4147 23.12 11.8884 23.12C11.3622 23.12 10.8957 23.0366 10.4814 22.8697C10.0671 22.7029 9.72192 22.467 9.44427 22.1627C9.16748 21.8585 8.95817 21.4928 8.81636 21.0656C8.67454 20.6384 8.60449 20.1757 8.60449 19.6794C8.60449 19.1831 8.67796 18.7036 8.82576 18.2789C8.97355 17.8542 9.18713 17.4927 9.46734 17.1952C9.74755 16.8969 10.0884 16.6694 10.4908 16.5109C10.8923 16.3525 11.3494 16.2741 11.8611 16.2741V16.2725ZM13.7884 19.6785C13.7884 19.194 13.709 18.7735 13.5509 18.4187C13.3929 18.0631 13.1665 17.7952 12.8726 17.6123C12.5787 17.4303 12.2413 17.3393 11.8611 17.3393C11.5903 17.3393 11.34 17.3898 11.1102 17.491C10.8804 17.5921 10.6822 17.7387 10.5164 17.9317C10.3507 18.1247 10.2191 18.3707 10.1234 18.6699C10.0278 18.9699 9.97992 19.3061 9.97992 19.6794C9.97992 20.0527 10.0278 20.3957 10.1234 20.6999C10.2191 21.0041 10.355 21.256 10.5301 21.4566C10.7052 21.6571 10.906 21.8063 11.1332 21.9057C11.3605 22.0052 11.6091 22.0549 11.8799 22.0549C12.2267 22.0549 12.5463 21.9689 12.8367 21.797C13.1272 21.6251 13.3587 21.3605 13.5313 21.0024C13.703 20.6442 13.7893 20.2027 13.7893 19.6794L13.7884 19.6785Z" fill="white"/>
<path d="M22.0275 20.9156C22.0275 21.1263 21.9745 21.3546 21.8695 21.5998C21.7644 21.8451 21.5995 22.0861 21.374 22.3229C21.1484 22.5596 20.8605 22.7509 20.5111 22.8984C20.1608 23.0459 19.7525 23.12 19.2869 23.12C18.9332 23.12 18.6128 23.0872 18.3232 23.0206C18.0336 22.954 17.7714 22.8512 17.5356 22.7113C17.2998 22.5714 17.0828 22.3869 16.8846 22.1577C16.7077 21.9495 16.5574 21.717 16.4327 21.46C16.3079 21.2029 16.214 20.9282 16.1516 20.6358C16.0892 20.3434 16.0576 20.0333 16.0576 19.7055C16.0576 19.1729 16.1362 18.6951 16.2926 18.2738C16.4497 17.8525 16.6744 17.4918 16.9666 17.1918C17.2588 16.8918 17.6013 16.6643 17.9943 16.5076C18.3873 16.3508 18.8059 16.2725 19.2502 16.2725C19.7918 16.2725 20.2745 16.3795 20.6982 16.5935C21.1211 16.8076 21.4457 17.0713 21.6713 17.3865C21.8968 17.7008 22.0096 17.9983 22.0096 18.2789C22.0096 18.4322 21.9549 18.5679 21.8447 18.685C21.7353 18.8022 21.6029 18.8612 21.4474 18.8612C21.274 18.8612 21.1442 18.8207 21.057 18.739C20.9699 18.6572 20.8733 18.5173 20.7665 18.3185C20.5897 17.9907 20.3821 17.7446 20.1429 17.582C19.9037 17.4193 19.609 17.3384 19.2587 17.3384C18.7017 17.3384 18.2575 17.5474 17.9277 17.9662C17.5971 18.385 17.4322 18.9791 17.4322 19.7502C17.4322 20.265 17.5057 20.6931 17.6517 21.0352C17.7978 21.3774 18.0046 21.6319 18.2728 21.8004C18.5411 21.9689 18.8546 22.0532 19.2134 22.0532C19.603 22.0532 19.9327 21.958 20.2019 21.7667C20.471 21.5754 20.6743 21.2948 20.8118 20.924C20.8699 20.7496 20.9408 20.6072 21.0263 20.4968C21.1117 20.3872 21.2484 20.3316 21.4372 20.3316C21.5986 20.3316 21.737 20.3872 21.8532 20.4985C21.9686 20.6097 22.0266 20.7487 22.0266 20.9139L22.0275 20.9156Z" fill="white"/>
</svg>
