<svg width="30" height="24" viewBox="0 0 30 24" fill="none" xmlns="http://www.w3.org/2000/svg">
<path d="M11.7044 1.42747C12.4436 2.27788 13.0495 3.31805 13.8397 4.13415C14.0987 4.40154 14.3494 4.57349 14.7337 4.63662L29.9633 4.65167C30.0784 10.0671 29.8781 15.4975 29.9624 20.9149C29.8576 22.0755 28.9946 22.9261 27.8298 23.0773L2.01972 23.0742C0.99764 22.9068 0.298471 22.1797 0 21.2326V1.88809C0.326453 0.872329 1.07431 0.130555 2.19246 0.0435679C4.41831 0.153494 6.77548 -0.0953541 8.98547 0.0432009C10.159 0.116791 10.9541 0.564571 11.7044 1.42728V1.42747Z" fill="#FFD150"/>
<path d="M29.9631 4.65096L14.7334 4.63591C14.3491 4.57297 14.0984 4.40101 13.8395 4.13344C13.0493 3.31735 12.4434 2.27717 11.7041 1.42676L27.8197 1.43392C29.7719 1.77048 29.9274 2.98096 29.9629 4.65078L29.9631 4.65096Z" fill="#BF7A32"/>
</svg>
