<svg width="24" height="30" viewBox="0 0 24 30" fill="none" xmlns="http://www.w3.org/2000/svg">
<path d="M13.7432 0H1.7855C0.799632 0 0 0.788742 0 1.76119V28.2388C0 29.2113 0.799632 30 1.7855 30H22.2145C23.2004 30 24 29.2113 24 28.2388V10.1171C24 9.65029 23.8121 9.20199 23.4772 8.87166L15.0059 0.515716C14.671 0.185388 14.2174 0 13.7432 0Z" fill="#7E39C6"/>
<path d="M23.8329 9.37381C23.7381 9.17999 23.6117 9.00388 23.457 8.85219L15.037 0.546809C14.8755 0.387544 14.6884 0.25693 14.4834 0.15918V7.69183C14.4834 8.62889 15.2531 9.38813 16.2031 9.38813H23.8398L23.8329 9.37465V9.37381Z" fill="#B166FF"/>
<path d="M8.63816 22.0094L7.55747 17.7152V22.3676C7.55747 22.6246 7.50023 22.8184 7.3849 22.9473C7.26957 23.0763 7.1175 23.1403 6.92699 23.1403C6.73648 23.1403 6.59296 23.0771 6.47592 22.9499C6.35888 22.8226 6.30078 22.6288 6.30078 22.3684V17.0351C6.30078 16.741 6.37767 16.5422 6.53059 16.4394C6.68352 16.3366 6.89111 16.2852 7.15168 16.2852H7.57455C7.82914 16.2852 8.01367 16.3079 8.129 16.3543C8.24347 16.4006 8.3289 16.4832 8.38443 16.6028C8.43996 16.7225 8.50232 16.9172 8.57323 17.1868L9.55313 20.8786L10.533 17.1868C10.6039 16.9172 10.6663 16.7225 10.7218 16.6028C10.7773 16.4832 10.8619 16.4006 10.9772 16.3543C11.0926 16.3079 11.2771 16.2852 11.5317 16.2852H11.9546C12.2151 16.2852 12.4219 16.3366 12.5757 16.4394C12.7286 16.5422 12.8055 16.7402 12.8055 17.0351V22.3684C12.8055 22.6254 12.7482 22.8192 12.6329 22.9482C12.5176 23.0771 12.3638 23.1411 12.1707 23.1411C11.9896 23.1411 11.841 23.0771 11.7248 22.9482C11.6086 22.8192 11.5496 22.6263 11.5496 22.3684V17.716L10.4689 22.0103C10.398 22.2892 10.3408 22.494 10.2964 22.6237C10.2519 22.7544 10.1699 22.8732 10.0503 22.9802C9.93073 23.0872 9.765 23.1411 9.55313 23.1411C9.39337 23.1411 9.25925 23.1066 9.14819 23.0375C9.03798 22.9684 8.9517 22.8808 8.89104 22.7729C8.82953 22.6659 8.78168 22.5471 8.7458 22.4164C8.71078 22.2867 8.6749 22.1502 8.63816 22.0094Z" fill="white"/>
<path d="M20.2377 20.3333V21.6065C20.2377 21.7759 20.2207 21.9107 20.1873 22.0119C20.154 22.113 20.0917 22.2048 20.0011 22.2857C19.9105 22.3675 19.7952 22.4458 19.6543 22.5217C19.2467 22.7391 18.8555 22.8975 18.4787 22.997C18.102 23.0964 17.6919 23.1461 17.2477 23.1461C16.73 23.1461 16.2584 23.0677 15.8329 22.9102C15.4075 22.7534 15.0444 22.5251 14.7446 22.2259C14.4447 21.9268 14.214 21.5644 14.0534 21.1389C13.8928 20.7133 13.8125 20.2372 13.8125 19.7122C13.8125 19.1872 13.8902 18.7229 14.0466 18.294C14.2029 17.8651 14.4319 17.501 14.7352 17.2019C15.0384 16.9027 15.4075 16.6744 15.8423 16.516C16.2772 16.3575 16.7701 16.2783 17.3211 16.2783C17.7739 16.2783 18.1755 16.3381 18.5249 16.457C18.8743 16.5766 19.157 16.7266 19.3749 16.9078C19.5919 17.089 19.7559 17.2811 19.8661 17.4833C19.9763 17.6856 20.0318 17.8651 20.0318 18.0227C20.0318 18.192 19.9686 18.3361 19.8413 18.4549C19.714 18.5746 19.562 18.6336 19.3843 18.6336C19.2861 18.6336 19.1921 18.6108 19.1015 18.5653C19.011 18.5198 18.9349 18.4566 18.8743 18.3749C18.706 18.1153 18.5633 17.919 18.4471 17.7859C18.3309 17.6527 18.1737 17.5415 17.9764 17.4505C17.779 17.3603 17.527 17.3148 17.2212 17.3148C16.9154 17.3148 16.624 17.3687 16.3763 17.4758C16.1285 17.5828 15.9167 17.7387 15.7398 17.9426C15.5638 18.1465 15.4289 18.396 15.3357 18.6926C15.2426 18.9884 15.1956 19.3162 15.1956 19.676C15.1956 20.4555 15.3767 21.0546 15.7398 21.4742C16.1029 21.8939 16.6086 22.1037 17.2579 22.1037C17.5732 22.1037 17.8696 22.0633 18.1464 21.9815C18.4232 21.8998 18.7043 21.7835 18.9887 21.6327V20.554H17.9328C17.6782 20.554 17.4869 20.5161 17.3562 20.4411C17.2263 20.3653 17.1605 20.2372 17.1605 20.056C17.1605 19.9077 17.2152 19.7855 17.3237 19.6895C17.4322 19.5926 17.58 19.5445 17.7671 19.5445H19.3151C19.5048 19.5445 19.6654 19.5614 19.7969 19.5942C19.9285 19.6271 20.0353 19.7013 20.1164 19.8159C20.1976 19.9305 20.2377 20.1024 20.2377 20.3324V20.3333Z" fill="white"/>
<path d="M3.7627 22.3191V17.1013C3.7627 16.8299 3.82506 16.6268 3.95064 16.4912C4.07537 16.3555 4.23769 16.2881 4.43589 16.2881C4.63409 16.2881 4.8058 16.3555 4.93309 16.4895C5.05953 16.6235 5.12275 16.8274 5.12275 17.1013V22.3191C5.12275 22.593 5.05953 22.7977 4.93309 22.9334C4.80665 23.0691 4.64092 23.1365 4.43589 23.1365C4.23086 23.1365 4.07964 23.0682 3.95235 22.9309C3.82591 22.7935 3.7627 22.5896 3.7627 22.3191Z" fill="white"/>
</svg>
