<svg width="24" height="30" viewBox="0 0 24 30" fill="none" xmlns="http://www.w3.org/2000/svg">
<path d="M13.7432 0H1.7855C0.79963 0 0 0.788764 0 1.76124V28.2396C0 29.2121 0.79963 30.0008 1.7855 30.0008H22.2145C23.2004 30.0008 24 29.2121 24 28.2396V10.1174C24 9.65056 23.8121 9.20225 23.4772 8.87191L15.005 0.51573C14.6701 0.185393 14.2165 0 13.7424 0H13.7432Z" fill="#6F4017"/>
<path d="M23.8329 9.3738C23.7381 9.17998 23.6117 9.00386 23.457 8.85217L15.037 0.54571C14.8755 0.38644 14.6884 0.255822 14.4834 0.157227V7.69009C14.4834 8.62717 15.2531 9.38644 16.2031 9.38644H23.8397L23.8329 9.37296V9.3738Z" fill="#B68C66"/>
<path d="M11.1059 22.0037L10.0252 17.7094V22.3619C10.0252 22.6189 9.968 22.8127 9.85267 22.9417C9.73734 23.0706 9.58527 23.1346 9.39476 23.1346C9.20425 23.1346 9.06073 23.0714 8.94369 22.9442C8.82665 22.8169 8.76855 22.6231 8.76855 22.3627V17.0293C8.76855 16.7352 8.84544 16.5363 8.99836 16.4335C9.15128 16.3307 9.35888 16.2793 9.61944 16.2793H10.0423C10.2969 16.2793 10.4814 16.3021 10.5968 16.3484C10.7112 16.3947 10.7967 16.4773 10.8522 16.597C10.9077 16.7167 10.9701 16.9113 11.041 17.181L12.0209 20.8728L13.0008 17.181C13.0717 16.9113 13.1341 16.7167 13.1896 16.597C13.2451 16.4773 13.3297 16.3947 13.445 16.3484C13.5604 16.3021 13.7449 16.2793 13.9995 16.2793H14.4223C14.6829 16.2793 14.8897 16.3307 15.0434 16.4335C15.1963 16.5363 15.2732 16.7344 15.2732 17.0293V22.3627C15.2732 22.6197 15.216 22.8136 15.1007 22.9425C14.9853 23.0714 14.8316 23.1355 14.6385 23.1355C14.4574 23.1355 14.3087 23.0714 14.1925 22.9425C14.0764 22.8136 14.0174 22.6206 14.0174 22.3627V17.7102L12.9367 22.0046C12.8658 22.2835 12.8086 22.4883 12.7641 22.6181C12.7197 22.7487 12.6377 22.8675 12.5181 22.9745C12.3985 23.0815 12.2328 23.1355 12.0209 23.1355C11.8611 23.1355 11.727 23.1009 11.616 23.0318C11.5057 22.9627 11.4195 22.8751 11.3588 22.7672C11.2973 22.6602 11.2495 22.5414 11.2136 22.4108C11.1785 22.281 11.1427 22.1445 11.1059 22.0037Z" fill="white"/>
<path d="M17.8137 17.1193V22.0011H20.6055C20.8285 22.0011 20.9994 22.0542 21.1181 22.1612C21.2369 22.2682 21.2967 22.4022 21.2967 22.564C21.2967 22.7258 21.2377 22.8623 21.1207 22.9643C21.0028 23.0663 20.8319 23.1177 20.6055 23.1177H17.2806C16.9807 23.1177 16.7654 23.0519 16.6339 22.9213C16.5023 22.7899 16.4365 22.5783 16.4365 22.2851V17.1202C16.4365 16.8455 16.4989 16.6399 16.6245 16.5025C16.7501 16.3651 16.9141 16.2969 17.1183 16.2969C17.3224 16.2969 17.4933 16.3651 17.6214 16.5008C17.7496 16.6365 17.8137 16.8429 17.8137 17.121V17.1193Z" fill="white"/>
<path d="M7.73361 22.5058C7.72507 22.6895 7.64306 22.8446 7.48928 22.9693C7.32953 23.0982 7.15781 23.1513 6.97243 23.1277C6.78704 23.1041 6.60593 22.9853 6.42738 22.773L4.75721 20.7741L4.64786 20.6435L4.49921 20.4648V22.3314C4.49921 22.6078 4.43514 22.8134 4.30785 22.9499C4.18056 23.0865 4.01311 23.1547 3.80722 23.1547C3.60134 23.1547 3.44842 23.0856 3.32027 22.9474C3.19298 22.81 3.12891 22.6044 3.12891 22.3314V17.078C3.12891 16.805 3.19212 16.6002 3.31771 16.4637C3.44414 16.328 3.60732 16.2598 3.80722 16.2598C4.00713 16.2598 4.18056 16.3272 4.30785 16.462C4.43514 16.5968 4.49921 16.8016 4.49921 17.078V18.7567L4.67862 18.5544L4.75807 18.4643L6.40175 16.6078C6.58372 16.4022 6.76739 16.2893 6.95363 16.2682C7.13987 16.2471 7.30731 16.3011 7.45853 16.4317C7.61315 16.5648 7.69346 16.7241 7.70029 16.9086C7.70627 17.0932 7.61657 17.2895 7.4329 17.4977L5.56111 19.612L7.48416 21.9134C7.66014 22.1241 7.74301 22.3221 7.73361 22.5067V22.5058Z" fill="white"/>
</svg>
