<svg width="24" height="30" viewBox="0 0 24 30" fill="none" xmlns="http://www.w3.org/2000/svg">
<path d="M13.7432 0H1.7855C0.799632 0 0 0.788742 0 1.76119V28.2388C0 29.2113 0.799632 30 1.7855 30H22.2145C23.2004 30 24 29.2113 24 28.2388V10.1171C24 9.65029 23.8121 9.20199 23.4772 8.87166L15.0059 0.515716C14.671 0.185388 14.2174 0 13.7432 0Z" fill="#E2364D"/>
<path d="M23.8329 9.37367C23.7381 9.17986 23.6117 9.00374 23.457 8.85206L15.037 0.545833C14.8755 0.386567 14.6884 0.255953 14.4834 0.158203V7.69086C14.4834 8.62791 15.2531 9.38716 16.2031 9.38716H23.8398L23.8329 9.37367Z" fill="#FB798B"/>
<path d="M5.6857 20.3672H4.42048V22.2708C4.42048 22.543 4.35555 22.7495 4.22484 22.8902C4.09498 23.0309 3.9301 23.1017 3.73191 23.1017C3.53371 23.1017 3.35686 23.0326 3.22957 22.8927C3.10228 22.7537 3.03906 22.5497 3.03906 22.2801V17.0968C3.03906 16.7968 3.10912 16.5828 3.24837 16.4547C3.38762 16.3258 3.60974 16.2617 3.91302 16.2617H5.68485C6.20854 16.2617 6.61177 16.3013 6.89369 16.3805C7.17305 16.4572 7.41396 16.5836 7.61643 16.7614C7.81976 16.9392 7.97353 17.1558 8.07946 17.4128C8.18454 17.6698 8.23751 17.9589 8.23751 18.2799C8.23751 18.965 8.02393 19.4841 7.59593 19.8372C7.16792 20.1903 6.53061 20.3672 5.68485 20.3672H5.6857ZM5.35081 17.2847H4.42048V19.34H5.35081C5.6763 19.34 5.94797 19.3063 6.16668 19.2389C6.38538 19.1715 6.55196 19.0619 6.66644 18.9086C6.78092 18.7552 6.83816 18.5555 6.83816 18.3077C6.83816 18.0111 6.75016 17.7693 6.57332 17.583C6.37512 17.3842 5.96677 17.2847 5.34996 17.2847H5.35081Z" fill="white"/>
<path d="M10.1679 16.2617H11.997C12.4728 16.2617 12.8812 16.3055 13.2212 16.3923C13.5612 16.4791 13.8705 16.6426 14.1473 16.8819C14.8683 17.4912 15.2297 18.4173 15.2297 19.6602C15.2297 20.0706 15.1938 20.4447 15.1212 20.7835C15.0486 21.1223 14.9366 21.4273 14.7854 21.6995C14.6342 21.9717 14.4403 22.2144 14.2045 22.4292C14.0183 22.5944 13.8158 22.7259 13.5945 22.8253C13.3741 22.9247 13.1366 22.9947 12.8829 23.0351C12.6292 23.0756 12.343 23.0958 12.0252 23.0958H10.1961C9.94066 23.0958 9.74844 23.0579 9.61944 22.982C9.49044 22.9062 9.40586 22.7992 9.36656 22.6601C9.32727 22.5219 9.30762 22.3424 9.30762 22.1217V17.1103C9.30762 16.812 9.37511 16.5963 9.51094 16.4623C9.64592 16.3283 9.86548 16.2617 10.1679 16.2617ZM10.7112 17.3572V21.9953H11.7749C12.0081 21.9953 12.1909 21.9894 12.3233 21.9767C12.4557 21.9641 12.5924 21.9338 12.7342 21.884C12.8761 21.8343 12.9991 21.7644 13.1033 21.6742C13.5723 21.2824 13.8072 20.6082 13.8072 19.6509C13.8072 18.9768 13.7039 18.4712 13.498 18.1358C13.2912 17.8004 13.0375 17.5864 12.7351 17.4945C12.4327 17.4027 12.067 17.3572 11.639 17.3572H10.713H10.7112Z" fill="white"/>
<path d="M20.5163 17.3125H17.7954V19.0324H20.0695C20.2805 19.0324 20.4377 19.0788 20.5411 19.1723C20.6445 19.2658 20.6966 19.3906 20.6966 19.5465C20.6966 19.7024 20.6436 19.8262 20.5385 19.9181C20.4334 20.0099 20.2763 20.0554 20.0687 20.0554H17.7945V22.2708C17.7945 22.5523 17.7304 22.7613 17.6014 22.8969C17.4724 23.0326 17.3075 23.1009 17.1059 23.1009C16.9043 23.1009 16.7343 23.0318 16.6062 22.8944C16.4772 22.757 16.4131 22.5489 16.4131 22.2708V17.0968C16.4131 16.9013 16.4421 16.7412 16.5011 16.6173C16.56 16.4935 16.6523 16.4033 16.7779 16.3468C16.9035 16.2904 17.0641 16.2617 17.2588 16.2617H20.5146C20.735 16.2617 20.8982 16.3098 21.005 16.4058C21.1118 16.5019 21.1656 16.6283 21.1656 16.7842C21.1656 16.9401 21.1118 17.0707 21.005 17.1676C20.8982 17.2637 20.7342 17.3125 20.5146 17.3125H20.5163Z" fill="white"/>
</svg>
