<svg width="24" height="30" viewBox="0 0 24 30" fill="none" xmlns="http://www.w3.org/2000/svg">
<path d="M13.7432 0H1.7855C0.799632 0 0 0.788742 0 1.76119V28.2388C0 29.2113 0.799632 30 1.7855 30H22.2145C23.2004 30 24 29.2113 24 28.2388V10.1171C24 9.65029 23.8121 9.20199 23.4772 8.87166L15.0059 0.515716C14.671 0.185388 14.2173 0 13.7432 0Z" fill="#DF6F20"/>
<path d="M23.8319 9.37381C23.7371 9.17999 23.6107 9.00388 23.456 8.85219L15.036 0.546809C14.8745 0.387544 14.6875 0.25693 14.4824 0.15918V7.69183C14.4824 8.62889 15.2522 9.38813 16.2021 9.38813H23.8388L23.8319 9.37381Z" fill="#F7AF7F"/>
<path d="M5.71732 20.3839H4.45038V22.29C4.45038 22.5622 4.38546 22.7695 4.25475 22.9102C4.12404 23.0509 3.96001 23.1217 3.76096 23.1217C3.5619 23.1217 3.38506 23.0518 3.25777 22.9127C3.13048 22.7737 3.06641 22.5689 3.06641 22.2993V17.1084C3.06641 16.8084 3.13646 16.5935 3.27571 16.4654C3.41581 16.3365 3.63708 16.2725 3.94207 16.2725H5.71646C6.24101 16.2725 6.64509 16.3121 6.92701 16.3921C7.20636 16.4688 7.44814 16.596 7.65147 16.773C7.85479 16.9508 8.00941 17.1682 8.11449 17.4252C8.21957 17.6823 8.27254 17.9721 8.27254 18.2932C8.27254 18.9791 8.05812 19.4991 7.63011 19.853C7.20125 20.2069 6.56393 20.3839 5.71561 20.3839H5.71732ZM5.38243 17.2972H4.45123V19.355H5.38243C5.70877 19.355 5.98129 19.3213 6.19999 19.2538C6.41869 19.1864 6.58615 19.076 6.70062 18.9235C6.8151 18.7701 6.87318 18.5696 6.87318 18.3218C6.87318 18.0252 6.78434 17.7834 6.6075 17.5963C6.40844 17.3974 6.00094 17.298 5.38243 17.298V17.2972Z" fill="white"/>
<path d="M12.0797 20.3839H10.8128V22.29C10.8128 22.5622 10.7479 22.7695 10.6172 22.9102C10.4865 23.0509 10.3224 23.1217 10.1234 23.1217C9.92433 23.1217 9.74749 23.0518 9.6202 22.9127C9.4929 22.7737 9.42969 22.5689 9.42969 22.2993V17.1084C9.42969 16.8084 9.49974 16.5935 9.63899 16.4654C9.77824 16.3365 10.0004 16.2725 10.3045 16.2725H12.0789C12.6034 16.2725 13.0075 16.3121 13.2894 16.3921C13.5688 16.4688 13.8097 16.596 14.0139 16.773C14.2172 16.9508 14.3718 17.1682 14.4769 17.4252C14.5829 17.6823 14.635 17.9721 14.635 18.2932C14.635 18.9791 14.4205 19.4991 13.9925 19.853C13.5637 20.2069 12.9264 20.3839 12.0789 20.3839H12.0797ZM11.744 17.2972H10.8128V19.355H11.744C12.0703 19.355 12.342 19.3213 12.5616 19.2538C12.7803 19.1864 12.9469 19.076 13.0622 18.9235C13.1767 18.7701 13.2348 18.5696 13.2348 18.3218C13.2348 18.0252 13.1468 17.7834 12.9691 17.5963C12.77 17.3974 12.3617 17.298 11.744 17.298V17.2972Z" fill="white"/>
<path d="M20.2241 17.3984H18.7154V22.291C18.7154 22.5724 18.6522 22.7814 18.5249 22.9179C18.3976 23.0544 18.2327 23.1227 18.0311 23.1227C17.8295 23.1227 17.6595 23.0536 17.5305 22.9162C17.4015 22.778 17.3374 22.5699 17.3374 22.2918V17.3992H15.8287C15.5929 17.3992 15.4169 17.3478 15.3025 17.245C15.1871 17.1422 15.1299 17.0074 15.1299 16.8389C15.1299 16.6703 15.1897 16.5262 15.3093 16.4251C15.4289 16.324 15.6023 16.2734 15.8287 16.2734H20.225C20.4642 16.2734 20.6419 16.3257 20.758 16.4302C20.8742 16.5347 20.9323 16.6703 20.9323 16.8389C20.9323 17.0074 20.8734 17.1431 20.7555 17.245C20.6376 17.3478 20.4607 17.3992 20.225 17.3992L20.2241 17.3984Z" fill="white"/>
</svg>
