<svg width="24" height="30" viewBox="0 0 24 30" fill="none" xmlns="http://www.w3.org/2000/svg">
<path d="M13.7432 0H1.78549C0.799622 0 0 0.788742 0 1.76119V28.2388C0 29.2113 0.799622 30 1.78549 30H22.2145C23.2004 30 24 29.2113 24 28.2388V10.1171C24 9.65029 23.812 9.20199 23.4772 8.87166L15.0059 0.515716C14.671 0.185388 14.2173 0 13.7432 0Z" fill="#E75779"/>
<path d="M23.832 9.37367C23.7371 9.17986 23.6107 9.00374 23.4561 8.85206L15.036 0.546675C14.8746 0.38741 14.6875 0.256796 14.4824 0.158203V7.69086C14.4824 8.62791 15.2522 9.38716 16.2021 9.38716H23.8388L23.832 9.37367Z" fill="#FB90A9"/>
<path d="M5.74846 17.1522L7.26656 21.5864L8.78979 17.121C8.86924 16.8868 8.9282 16.7233 8.96835 16.6314C9.00765 16.5396 9.07341 16.457 9.16482 16.3837C9.25623 16.3104 9.38097 16.2733 9.53987 16.2733C9.65606 16.2733 9.76285 16.302 9.86195 16.3593C9.96105 16.4166 10.0388 16.4924 10.0952 16.5868C10.1516 16.6812 10.1797 16.7772 10.1797 16.8733C10.1797 16.9399 10.1703 17.0106 10.1524 17.0873C10.1345 17.164 10.1114 17.239 10.0841 17.3132C10.0567 17.3865 10.0294 17.4632 10.002 17.5407L8.37887 21.8619C8.32077 22.0271 8.26268 22.1847 8.20544 22.333C8.14735 22.4821 8.08072 22.6127 8.00383 22.7257C7.9278 22.8386 7.82613 22.9313 7.6997 23.0029C7.57326 23.0754 7.41864 23.1108 7.23581 23.1108C7.05299 23.1108 6.89835 23.0754 6.77191 23.0046C6.64547 22.9338 6.54297 22.8411 6.46523 22.7248C6.38749 22.6094 6.31999 22.4771 6.26189 22.3304C6.2038 22.1838 6.14571 22.0271 6.08847 21.8611L4.49263 17.5761C4.46529 17.4977 4.4371 17.421 4.40806 17.346C4.37901 17.271 4.3551 17.1893 4.3346 17.1025C4.31495 17.0149 4.30469 16.9415 4.30469 16.8817C4.30469 16.7283 4.36705 16.5885 4.49178 16.4621C4.6165 16.3357 4.7737 16.2725 4.9625 16.2725C5.19402 16.2725 5.35804 16.3424 5.45458 16.4823C5.55026 16.6222 5.6485 16.8455 5.74931 17.1522H5.74846Z" fill="white"/>
<path d="M11.2997 22.295V17.0848C11.2997 16.8143 11.3621 16.6112 11.4868 16.4755C11.6115 16.3399 11.773 16.2725 11.9712 16.2725C12.1694 16.2725 12.3411 16.339 12.4675 16.473C12.594 16.607 12.6572 16.8109 12.6572 17.084V22.2942C12.6572 22.5681 12.594 22.772 12.4675 22.9077C12.3411 23.0433 12.1754 23.1108 11.9712 23.1108C11.767 23.1108 11.6149 23.0425 11.4885 22.9051C11.3621 22.7686 11.2988 22.5647 11.2988 22.2942L11.2997 22.295Z" fill="white"/>
<path d="M14.6369 16.2803H16.4643C16.9393 16.2803 17.3476 16.3241 17.6876 16.4109C18.0276 16.4977 18.336 16.6612 18.6128 16.8996C19.3339 17.508 19.6944 18.4333 19.6944 19.6754C19.6944 20.0849 19.6585 20.4591 19.5859 20.7978C19.5133 21.1366 19.4014 21.4416 19.251 21.713C19.0998 21.9843 18.9067 22.2279 18.6701 22.4419C18.4847 22.6062 18.2814 22.7385 18.061 22.838C17.8406 22.9374 17.6039 23.0073 17.3502 23.0478C17.0964 23.0882 16.8111 23.1085 16.4933 23.1085H14.666C14.4114 23.1085 14.2192 23.0705 14.0902 22.9947C13.9612 22.9189 13.8766 22.8118 13.8373 22.6736C13.798 22.5354 13.7783 22.3559 13.7783 22.1352V17.128C13.7783 16.8297 13.8458 16.614 13.9817 16.4808C14.1166 16.3477 14.3362 16.2803 14.6378 16.2803H14.6369ZM15.1802 17.3749V22.0096H16.243C16.4762 22.0096 16.6582 22.0037 16.7906 21.9911C16.923 21.9784 17.0597 21.9481 17.2015 21.8984C17.3433 21.8487 17.4664 21.7787 17.5697 21.6885C18.0388 21.2975 18.2737 20.6234 18.2737 19.667C18.2737 18.9928 18.1703 18.4881 17.9644 18.1535C17.7585 17.8182 17.504 17.6041 17.2015 17.5131C16.8991 17.4213 16.5343 17.3757 16.1063 17.3757H15.1811L15.1802 17.3749Z" fill="white"/>
</svg>
