<svg width="24" height="30" viewBox="0 0 24 30" fill="none" xmlns="http://www.w3.org/2000/svg">
<path d="M13.7432 0H1.7855C0.799632 0 0 0.788742 0 1.76119V28.2388C0 29.2113 0.799632 30 1.7855 30H22.2145C23.2004 30 24 29.2113 24 28.2388V10.1171C24 9.65029 23.8121 9.20199 23.4772 8.87166L15.0059 0.515716C14.671 0.185388 14.2174 0 13.7432 0Z" fill="#237844"/>
<path d="M23.8329 9.37367C23.7381 9.17986 23.6117 9.00374 23.457 8.85206L15.037 0.546675C14.8755 0.38741 14.6884 0.256796 14.4834 0.158203V7.69086C14.4834 8.62791 15.2531 9.38716 16.2031 9.38716H23.8398L23.8329 9.37367Z" fill="#66C38B"/>
<path d="M4.00505 21.722L5.50778 19.558L4.2434 17.6334C4.12465 17.4463 4.03495 17.2862 3.97515 17.1522C3.91535 17.0182 3.88545 16.8893 3.88545 16.7654C3.88545 16.6416 3.94269 16.5253 4.05717 16.4241C4.17164 16.323 4.31174 16.2725 4.47662 16.2725C4.66628 16.2725 4.81322 16.3272 4.9183 16.4376C5.02338 16.548 5.16947 16.7519 5.35571 17.0494L6.36379 18.6581L7.44021 17.0494C7.52906 16.9137 7.60424 16.7983 7.66661 16.7014C7.72897 16.6053 7.78963 16.5253 7.84772 16.4621C7.90581 16.3989 7.97073 16.3517 8.04249 16.3197C8.11425 16.2885 8.19713 16.2725 8.29195 16.2725C8.46281 16.2725 8.60292 16.323 8.71142 16.4241C8.81992 16.5253 8.87374 16.6449 8.87374 16.7831C8.87374 16.9854 8.75585 17.2592 8.52091 17.6056L7.19674 19.5572L8.62171 21.7212C8.74986 21.9108 8.84298 22.0684 8.90107 22.1931C8.95917 22.3178 8.98821 22.4366 8.98821 22.5478C8.98821 22.6532 8.96258 22.7501 8.91047 22.8369C8.85836 22.9245 8.78489 22.9936 8.69092 23.045C8.59609 23.0964 8.4893 23.1217 8.37055 23.1217C8.24241 23.1217 8.13391 23.0956 8.04506 23.0425C7.95621 22.9903 7.88445 22.9245 7.82977 22.8462C7.7751 22.7678 7.67258 22.6161 7.52308 22.3894L6.34158 20.5549L5.0866 22.4434C4.98921 22.5942 4.91916 22.6995 4.87815 22.7594C4.83715 22.82 4.7876 22.8782 4.72951 22.9355C4.67141 22.9928 4.60307 23.0374 4.52361 23.0711C4.44416 23.104 4.35104 23.1209 4.24426 23.1209C4.07937 23.1209 3.94268 23.0711 3.83418 22.9717C3.72569 22.8723 3.67188 22.7273 3.67188 22.5377C3.67188 22.3144 3.78293 22.0422 4.0059 21.7203L4.00505 21.722Z" fill="white"/>
<path d="M11.2517 17.0866V21.9076H14.0094C14.2289 21.9076 14.3981 21.9598 14.516 22.066C14.6339 22.1713 14.6919 22.3036 14.6919 22.4637C14.6919 22.6238 14.6339 22.7578 14.5177 22.8589C14.4015 22.96 14.2323 23.0106 14.0094 23.0106H10.7254C10.429 23.0106 10.2162 22.9457 10.0864 22.816C9.95653 22.6862 9.8916 22.4772 9.8916 22.1882V17.0866C9.8916 16.8153 9.95312 16.6122 10.077 16.4765C10.2009 16.3409 10.3632 16.2734 10.5648 16.2734C10.7664 16.2734 10.9347 16.3409 11.062 16.4748C11.1884 16.6088 11.2517 16.8127 11.2517 17.0866Z" fill="white"/>
<path d="M20.3301 21.0218C20.3301 21.422 20.2251 21.7827 20.0166 22.1012C19.8073 22.4206 19.5015 22.6709 19.0982 22.8512C18.695 23.0324 18.2174 23.1225 17.6647 23.1225C17.0018 23.1225 16.455 22.9995 16.0244 22.7518C15.7195 22.574 15.4709 22.3372 15.2803 22.0397C15.0898 21.7431 14.9941 21.4549 14.9941 21.1743C14.9941 21.0117 15.0514 20.8726 15.1659 20.7563C15.2803 20.64 15.4264 20.5827 15.6033 20.5827C15.7468 20.5827 15.8681 20.6282 15.9672 20.7184C16.0663 20.8086 16.1509 20.9426 16.2218 21.1204C16.3072 21.331 16.3995 21.5071 16.4986 21.6487C16.5977 21.7903 16.7378 21.9066 16.918 21.9993C17.0983 22.0911 17.3349 22.1375 17.628 22.1375C18.0312 22.1375 18.3584 22.0448 18.6104 21.8594C18.8624 21.674 18.988 21.4431 18.988 21.1659C18.988 20.9459 18.9197 20.7673 18.7838 20.6308C18.648 20.4934 18.472 20.3889 18.2567 20.3164C18.0415 20.244 17.7536 20.1673 17.393 20.0864C16.9104 19.9752 16.5063 19.8446 16.1816 19.6954C15.8561 19.5462 15.5981 19.3432 15.4076 19.0853C15.2171 18.8274 15.1214 18.5081 15.1214 18.1255C15.1214 17.7429 15.2222 17.437 15.4239 17.1539C15.6255 16.8708 15.9168 16.6533 16.2987 16.5008C16.6805 16.3491 17.1291 16.2725 17.6451 16.2725C18.0577 16.2725 18.4139 16.323 18.7146 16.4241C19.0154 16.5253 19.2648 16.6592 19.4639 16.8261C19.6621 16.9929 19.8073 17.1691 19.8987 17.3528C19.9901 17.5365 20.0363 17.716 20.0363 17.8904C20.0363 18.0497 19.979 18.1938 19.8645 18.3218C19.7501 18.4499 19.6074 18.514 19.4365 18.514C19.281 18.514 19.1623 18.4752 19.0811 18.3985C19 18.3218 18.912 18.1963 18.818 18.021C18.6958 17.7707 18.5489 17.5761 18.3781 17.4362C18.2072 17.2963 17.9321 17.2264 17.5536 17.2264C17.2025 17.2264 16.9189 17.3022 16.7036 17.4547C16.4883 17.6073 16.3807 17.7901 16.3807 18.0033C16.3807 18.1356 16.4174 18.2502 16.4909 18.3471C16.5644 18.444 16.6652 18.5266 16.7933 18.5957C16.9215 18.6648 17.0513 18.7196 17.1829 18.7583C17.3144 18.798 17.5314 18.8544 17.833 18.9303C18.2115 19.0179 18.5549 19.114 18.8616 19.2193C19.1683 19.3246 19.4297 19.4527 19.645 19.6035C19.8603 19.7544 20.0286 19.9448 20.149 20.1749C20.2695 20.4049 20.3301 20.6881 20.3301 21.0218Z" fill="white"/>
</svg>
