<svg width="24" height="30" viewBox="0 0 24 30" fill="none" xmlns="http://www.w3.org/2000/svg">
<path d="M13.7432 0H1.7855C0.799627 0 0 0.788742 0 1.76119V28.2388C0 29.2113 0.799627 30 1.7855 30H22.2145C23.2004 30 24 29.2113 24 28.2388V10.1171C24 9.65029 23.8121 9.20199 23.4772 8.87166L15.0059 0.515716C14.671 0.185388 14.2174 0 13.7432 0Z" fill="#737373"/>
<path d="M23.8329 9.37367C23.7381 9.17986 23.6117 9.00374 23.457 8.85206L15.037 0.545833C14.8755 0.386567 14.6884 0.255953 14.4834 0.158203V7.69086C14.4834 8.62791 15.2531 9.38716 16.2031 9.38716H23.8398L23.8329 9.37367Z" fill="#999999"/>
<path d="M5.10231 21.4665L8.55114 17.3955H5.58755C5.37995 17.3955 5.22362 17.35 5.11854 17.2599C5.01346 17.1697 4.96049 17.0509 4.96049 16.9026C4.96049 16.7543 5.01346 16.6245 5.11854 16.5301C5.22362 16.4349 5.37995 16.3877 5.58755 16.3877H9.40715C9.90179 16.3877 10.1495 16.6152 10.1495 17.0703C10.1495 17.2868 10.1085 17.4604 10.0257 17.5902C9.9428 17.72 9.77707 17.9289 9.52676 18.218L6.3026 22.0041H9.85652C10.0675 22.0041 10.2247 22.0471 10.3281 22.133C10.4315 22.219 10.4836 22.3387 10.4836 22.492C10.4836 22.6454 10.4315 22.7785 10.3281 22.8712C10.2239 22.9648 10.0667 23.0111 9.85652 23.0111H5.49614C5.1997 23.0111 4.97673 22.9454 4.82722 22.8148C4.67772 22.6833 4.60254 22.508 4.60254 22.2881C4.60254 22.2131 4.6145 22.144 4.63927 22.08C4.66405 22.0167 4.69651 21.9569 4.73752 21.9013C4.77853 21.8457 4.83576 21.7749 4.90923 21.689C4.9827 21.603 5.04677 21.5288 5.10145 21.4656L5.10231 21.4665Z" fill="white"/>
<path d="M11.3955 22.3064V17.0886C11.3955 16.8172 11.4579 16.6141 11.5835 16.4785C11.7082 16.3428 11.8705 16.2754 12.0687 16.2754C12.2669 16.2754 12.4386 16.3428 12.5659 16.4768C12.6923 16.6108 12.7556 16.8147 12.7556 17.0886V22.3064C12.7556 22.5803 12.6923 22.785 12.5659 22.9207C12.4395 23.0564 12.2737 23.1238 12.0687 23.1238C11.8637 23.1238 11.7125 23.0555 11.5852 22.9182C11.4587 22.7808 11.3955 22.5769 11.3955 22.3064Z" fill="white"/>
<path d="M16.882 20.4318H15.6364V22.3068C15.6364 22.5747 15.5723 22.7778 15.4442 22.9169C15.3161 23.0551 15.1537 23.125 14.959 23.125C14.7642 23.125 14.5899 23.0567 14.4643 22.9194C14.3387 22.782 14.2764 22.5815 14.2764 22.316V17.2111C14.2764 16.9162 14.3447 16.7055 14.4823 16.5783C14.6198 16.4519 14.8376 16.3887 15.1375 16.3887H16.8829C17.3989 16.3887 17.7961 16.4283 18.0738 16.5058C18.3488 16.5808 18.5863 16.7064 18.7862 16.8808C18.9862 17.0552 19.1382 17.2693 19.2416 17.5221C19.345 17.7749 19.3971 18.0597 19.3971 18.3757C19.3971 19.0507 19.1861 19.5613 18.7649 19.9094C18.3437 20.2574 17.7158 20.431 16.882 20.431V20.4318ZM16.5522 17.3957H15.6364V19.4198H16.5522C16.8726 19.4198 17.1409 19.3869 17.3561 19.3203C17.5714 19.2538 17.7354 19.1459 17.8482 18.9951C17.961 18.8442 18.0174 18.647 18.0174 18.4035C18.0174 18.1111 17.9302 17.8735 17.756 17.6898C17.5603 17.4943 17.1588 17.3957 16.5514 17.3957H16.5522Z" fill="white"/>
</svg>
