<svg width="74" height="76" viewBox="0 0 74 76" fill="none" xmlns="http://www.w3.org/2000/svg">
<path d="M10.8666 36.3669V75.5669L22.3 54.3336L33.7333 75.5669V36.3669L51.7 28.2003L22.3 23.3003L7.59998 26.5669L1.06665 47.8003L10.8666 39.6336M30.4666 15.1336L22.3 20.0336L14.1333 15.1336V5.33359L22.3 0.433594L30.4666 5.33359V15.1336ZM68.0333 75.5669H51.7L46.8 52.7003H72.9333L68.0333 75.5669Z" fill="white"/>
<path d="M30.4666 15.1336V5.33359L22.2999 0.433594V20.0336L30.4666 15.1336ZM33.7333 75.5669V36.3669L51.6999 28.2003L22.2999 23.3003V54.3336L33.7333 75.5669ZM59.8666 75.5669H68.0333L72.9333 52.7003H59.8666V75.5669Z" fill="#F16F70"/>
<path d="M10.8666 36.3669V75.5669L22.3 54.3336L33.7333 75.5669V36.3669L51.7 28.2003L22.3 23.3003L7.59998 26.5669L1.06665 47.8003L10.8666 39.6336M68.0333 75.5669H51.7L46.8 52.7003H72.9333L68.0333 75.5669ZM30.4666 15.1336L22.3 20.0336L14.1333 15.1336V5.33359L22.3 0.433594L30.4666 5.33359V15.1336Z" stroke="#282827" stroke-width="0.666667" stroke-miterlimit="10" stroke-linecap="round" stroke-linejoin="round"/>
<path d="M54.9667 38.0001L53.3334 39.6335L54.9667 41.2668M54.9667 38.0001L56.6 39.6335L54.9667 41.2668M66.4 31.4668L64.7667 33.1001L66.4 34.7335M66.4 31.4668L68.0334 33.1001L66.4 34.7335" stroke="#282827" stroke-width="0.666667" stroke-linecap="round" stroke-linejoin="round"/>
</svg>
