<svg width="80" height="80" viewBox="0 0 80 80" fill="none" xmlns="http://www.w3.org/2000/svg">
<path d="M8.57101 3.85742H48.571C49.8213 3.85742 51.0209 4.35418 51.905 5.23828C52.789 6.12228 53.2857 7.32117 53.2859 8.57129V71.4287C53.2859 72.679 52.7891 73.8786 51.905 74.7627C51.0209 75.6467 49.8212 76.1436 48.571 76.1436H8.57101C7.32095 76.1434 6.12198 75.6466 5.238 74.7627C4.3539 73.8786 3.85714 72.679 3.85714 71.4287V8.57129C3.85725 7.32113 4.354 6.12228 5.238 5.23828C6.122 4.35428 7.32085 3.85753 8.57101 3.85742Z" fill="#F2F2F2" stroke="#282827" stroke-width="2"/>
<path d="M54.2857 60.0003V71.4288C54.2857 72.9444 53.6837 74.3978 52.612 75.4695C51.5404 76.5411 50.0869 77.1431 48.5714 77.1431H8.57143C7.0559 77.1431 5.60245 76.5411 4.53082 75.4695C3.45918 74.3978 2.85714 72.9444 2.85714 71.4288V8.57171C2.85714 7.05618 3.45918 5.60273 4.53082 4.5311C5.60245 3.45946 7.0559 2.85742 8.57143 2.85742H48.5714C50.0869 2.85742 51.5404 3.45946 52.612 4.5311C53.6837 5.60273 54.2857 7.05618 54.2857 8.57171V20.0003M37.1429 40.0003H77.1429H37.1429ZM65.7143 28.5717L77.1429 40.0003L65.7143 51.4289" fill="#F2F2F2"/>
<path d="M54.2857 60.0003V71.4289C54.2857 72.9444 53.6837 74.3978 52.612 75.4695C51.5404 76.5411 50.0869 77.1431 48.5714 77.1431H8.57143C7.0559 77.1431 5.60245 76.5411 4.53082 75.4695C3.45918 74.3978 2.85714 72.9444 2.85714 71.4289V8.57171C2.85714 7.05618 3.45918 5.60273 4.53082 4.5311C5.60245 3.45946 7.0559 2.85742 8.57143 2.85742H48.5714C50.0869 2.85742 51.5404 3.45946 52.612 4.5311C53.6837 5.60273 54.2857 7.05618 54.2857 8.57171V20.0003M37.1429 40.0003H77.1429M77.1429 40.0003L65.7143 28.5717M77.1429 40.0003L65.7143 51.4289" stroke="#282827" stroke-width="2" stroke-linecap="round" stroke-linejoin="round"/>
</svg>
