<svg width="81" height="81" viewBox="0 0 81 81" fill="none" xmlns="http://www.w3.org/2000/svg">
<path d="M40.5003 57.1663C35.9448 57.1663 31.8759 55.9308 28.2937 53.4597C24.7114 50.9886 22.1137 47.7797 20.5003 43.833C21.6114 41.1663 23.167 38.833 25.167 36.833C27.167 34.833 29.5003 33.2775 32.167 32.1663L36.0837 36.083C33.917 36.6941 31.9725 37.653 30.2503 38.9597C28.5281 40.2663 27.1114 41.8908 26.0003 43.833C27.4448 46.4441 29.4448 48.4863 32.0003 49.9597C34.5559 51.433 37.3892 52.1686 40.5003 52.1663C42.167 52.1663 43.7781 51.9441 45.3337 51.4997C46.8892 51.0552 48.3059 50.4163 49.5837 49.583L53.167 53.1663C51.3892 54.4441 49.4303 55.4308 47.2903 56.1263C45.1503 56.8219 42.887 57.1686 40.5003 57.1663ZM57.917 48.4997L54.3337 44.9163C54.4448 44.7497 54.5559 44.5697 54.667 44.3763C54.7781 44.183 54.8892 44.0019 55.0003 43.833C54.0003 41.9997 52.6948 40.4308 51.0837 39.1263C49.4725 37.8219 47.667 36.863 45.667 36.2497L39.917 30.4997C44.4725 30.4997 48.6392 31.7363 52.417 34.2097C56.1948 36.683 58.8892 39.8908 60.5003 43.833C60.167 44.6663 59.7925 45.4719 59.377 46.2497C58.9614 47.0275 58.4748 47.7775 57.917 48.4997ZM66.417 75.833L61.0837 70.4997H17.167C15.3337 70.4997 13.7648 69.8475 12.4603 68.543C11.1559 67.2386 10.5025 65.6686 10.5003 63.833V19.9163L5.16699 14.4997L9.83366 9.83301L71.167 71.1663L66.417 75.833ZM17.167 63.833H54.417L17.167 26.583V63.833ZM70.5003 61.083L63.8337 54.4163V27.1663H36.5837L19.917 10.4997H63.8337C65.667 10.4997 67.237 11.153 68.5437 12.4597C69.8503 13.7663 70.5025 15.3352 70.5003 17.1663V61.083Z" fill="#CDCDCE"/>
</svg>
