<svg width="120" height="121" viewBox="0 0 120 121" fill="none" xmlns="http://www.w3.org/2000/svg">
<path d="M22.5 76.5651V117.995H67.5V76.5651L45 60.4951L22.5 76.5651ZM60 17.9951H50L42.5 2.99512H30L22.5 12.9951H15L2.5 25.4951L17.5 37.9951H57.5L65 27.9951L60 17.9951Z" fill="white"/>
<path d="M52.5 117.995H37.5V100.495L45 92.9951L52.5 100.495V117.995ZM45 60.4951L22.5 76.5701V89.0701L45 72.9951L67.5 89.0701V76.5701L45 60.4951ZM102.5 107.995L90 100.495L102.5 52.9951L115 100.495L102.5 107.995Z" fill="#5C9FAD"/>
<path d="M67.5 76.5654V117.995H22.5V76.5654" stroke="#282827" stroke-linecap="round" stroke-linejoin="round"/>
<path d="M10 85.4951L45 60.4951L80 85.4951M50 17.9951H60L65 27.9951L57.5 37.9951H17.5L2.5 25.4951L15 12.9951H22.5L30 2.99512H42.5L50 17.9951ZM50 17.9951H37.5M2.5 117.995H117.5M102.5 117.995V95.4951M52.5 117.995H37.5V100.495L45 92.9951L52.5 100.495V117.995ZM102.5 107.995L90 100.495L102.5 52.9951L115 100.495L102.5 107.995Z" stroke="#282827" stroke-linecap="round" stroke-linejoin="round"/>
</svg>
